<mxfile host="app.diagrams.net" agent="Mozilla/5.0 (X11; Linux x86_64; rv:139.0) Gecko/20100101 Firefox/139.0" version="27.1.3">
  <diagram name="Page-1" id="sALq_mYJsIHV27RAzlB7">
    <mxGraphModel dx="1426" dy="797" grid="1" gridSize="10" guides="1" tooltips="1" connect="1" arrows="1" fold="1" page="1" pageScale="1" pageWidth="850" pageHeight="1100" math="0" shadow="0">
      <root>
        <mxCell id="0" />
        <mxCell id="1" parent="0" />
        <mxCell id="rD_vGrl1cCV_8WBfiHGh-8" style="edgeStyle=orthogonalEdgeStyle;rounded=0;orthogonalLoop=1;jettySize=auto;html=1;exitX=1;exitY=0.5;exitDx=0;exitDy=0;startArrow=classic;startFill=1;entryX=0.002;entryY=0.496;entryDx=0;entryDy=0;entryPerimeter=0;" parent="1" source="rD_vGrl1cCV_8WBfiHGh-6" target="rD_vGrl1cCV_8WBfiHGh-4" edge="1">
          <mxGeometry relative="1" as="geometry">
            <mxPoint x="410" y="300" as="targetPoint" />
          </mxGeometry>
        </mxCell>
        <mxCell id="rD_vGrl1cCV_8WBfiHGh-6" value="End user&#39;s device" style="swimlane;whiteSpace=wrap;html=1;" parent="1" vertex="1">
          <mxGeometry x="40" y="93.28" width="200" height="200" as="geometry" />
        </mxCell>
        <mxCell id="rD_vGrl1cCV_8WBfiHGh-1" value="" style="shape=mxgraph.networks2.icon;aspect=fixed;fillColor=#EDEDED;strokeColor=#000000;gradientColor=#5B6163;network2IconShadow=1;network2bgFillColor=none;network2Icon=mxgraph.networks2.monitor;network2IconYOffset=-0.009;network2IconW=1;network2IconH=0.742;" parent="rD_vGrl1cCV_8WBfiHGh-6" vertex="1">
          <mxGeometry x="46.099999999999994" y="70" width="107.81" height="80" as="geometry" />
        </mxCell>
        <mxCell id="rD_vGrl1cCV_8WBfiHGh-7" value="3-tier architecture" style="swimlane;whiteSpace=wrap;html=1;" parent="1" vertex="1">
          <mxGeometry x="600" y="107.5" width="380" height="392.5" as="geometry" />
        </mxCell>
        <mxCell id="rD_vGrl1cCV_8WBfiHGh-4" value="" style="fillColorStyles=neutralFill;neutralFill=#9DA6A8;shape=mxgraph.networks2.icon;aspect=fixed;fillColor=#EDEDED;strokeColor=#000000;gradientColor=#5B6163;network2IconShadow=1;network2bgFillColor=none;network2Icon=mxgraph.networks2.server;network2IconW=1.0001;network2IconH=0.5812;" parent="rD_vGrl1cCV_8WBfiHGh-7" vertex="1">
          <mxGeometry x="132.73" y="52.5" width="114.53" height="66.56" as="geometry" />
        </mxCell>
        <mxCell id="rD_vGrl1cCV_8WBfiHGh-9" value="" style="fillColorStyles=neutralFill;neutralFill=#9DA6A8;shape=mxgraph.networks2.icon;aspect=fixed;fillColor=#EDEDED;strokeColor=#000000;gradientColor=#5B6163;network2IconShadow=1;network2bgFillColor=none;network2Icon=mxgraph.networks2.server;network2IconW=1.0001;network2IconH=0.5812;" parent="rD_vGrl1cCV_8WBfiHGh-7" vertex="1">
          <mxGeometry x="132.73" y="182.5" width="114.53" height="66.56" as="geometry" />
        </mxCell>
        <mxCell id="rD_vGrl1cCV_8WBfiHGh-2" value="" style="shape=mxgraph.networks2.icon;aspect=fixed;fillColor=#EDEDED;strokeColor=#000000;gradientColor=#5B6163;network2IconShadow=1;network2bgFillColor=none;network2Icon=mxgraph.networks2.data_storage;network2IconW=0.8252;network2IconH=0.9989;" parent="rD_vGrl1cCV_8WBfiHGh-7" vertex="1">
          <mxGeometry x="153.86" y="292.5" width="72.28" height="87.5" as="geometry" />
        </mxCell>
        <mxCell id="rD_vGrl1cCV_8WBfiHGh-10" value="&lt;div&gt;Client code base&lt;/div&gt;&lt;div&gt;-&lt;/div&gt;&lt;div&gt;webserver&lt;/div&gt;&lt;div&gt;+&lt;/div&gt;&lt;div&gt;reverse proxy&lt;/div&gt;" style="text;html=1;align=center;verticalAlign=middle;whiteSpace=wrap;rounded=0;" parent="rD_vGrl1cCV_8WBfiHGh-7" vertex="1">
          <mxGeometry x="260" y="61.17" width="100" height="49.22" as="geometry" />
        </mxCell>
        <mxCell id="rD_vGrl1cCV_8WBfiHGh-11" value="&lt;div&gt;API code base&lt;/div&gt;&lt;div&gt;-&lt;/div&gt;Application&lt;div&gt;server&lt;/div&gt;&lt;div&gt;+&lt;br&gt;Business logic&lt;/div&gt;" style="text;html=1;align=center;verticalAlign=middle;whiteSpace=wrap;rounded=0;" parent="rD_vGrl1cCV_8WBfiHGh-7" vertex="1">
          <mxGeometry x="260" y="181.17000000000002" width="100" height="69.22" as="geometry" />
        </mxCell>
        <mxCell id="rD_vGrl1cCV_8WBfiHGh-12" value="Database" style="text;html=1;align=center;verticalAlign=middle;whiteSpace=wrap;rounded=0;" parent="rD_vGrl1cCV_8WBfiHGh-7" vertex="1">
          <mxGeometry x="280" y="321.25" width="60" height="30" as="geometry" />
        </mxCell>
        <mxCell id="rD_vGrl1cCV_8WBfiHGh-13" value="" style="shape=mxgraph.networks2.icon;aspect=fixed;network2IconShadow=1;network2bgFillColor=none;network2Icon=mxgraph.networks2.firewall;network2IconXOffset=0.0001;network2IconYOffset=0.0001;network2IconW=1;network2IconH=0.608;" parent="1" vertex="1">
          <mxGeometry x="370" y="167.03" width="86.35" height="52.5" as="geometry" />
        </mxCell>
        <mxCell id="rD_vGrl1cCV_8WBfiHGh-14" value="Firewall could be added" style="text;html=1;align=center;verticalAlign=middle;whiteSpace=wrap;rounded=0;" parent="1" vertex="1">
          <mxGeometry x="383.17" y="120" width="60" height="30" as="geometry" />
        </mxCell>
        <mxCell id="rD_vGrl1cCV_8WBfiHGh-20" value="Stack" style="swimlane;whiteSpace=wrap;html=1;" parent="1" vertex="1">
          <mxGeometry x="980" y="107.5" width="320" height="392.5" as="geometry" />
        </mxCell>
        <mxCell id="rD_vGrl1cCV_8WBfiHGh-27" value="shad.cn&lt;br&gt;(Tailwind CSS, React, ARIA)" style="rounded=0;whiteSpace=wrap;html=1;" parent="rD_vGrl1cCV_8WBfiHGh-20" vertex="1">
          <mxGeometry x="20" y="32.5" width="120" height="60" as="geometry" />
        </mxCell>
        <mxCell id="rD_vGrl1cCV_8WBfiHGh-28" value="Nginx" style="rounded=0;whiteSpace=wrap;html=1;" parent="rD_vGrl1cCV_8WBfiHGh-20" vertex="1">
          <mxGeometry x="20" y="92.5" width="120" height="60" as="geometry" />
        </mxCell>
        <mxCell id="rD_vGrl1cCV_8WBfiHGh-29" value="Tomcat&lt;br&gt;(runs JVM, Spring boot)" style="rounded=0;whiteSpace=wrap;html=1;" parent="rD_vGrl1cCV_8WBfiHGh-20" vertex="1">
          <mxGeometry x="20" y="192.5" width="120" height="60" as="geometry" />
        </mxCell>
        <mxCell id="rD_vGrl1cCV_8WBfiHGh-30" value="SQLite" style="rounded=0;whiteSpace=wrap;html=1;" parent="rD_vGrl1cCV_8WBfiHGh-20" vertex="1">
          <mxGeometry x="20" y="302.5" width="120" height="60" as="geometry" />
        </mxCell>
        <mxCell id="rD_vGrl1cCV_8WBfiHGh-34" value="" style="shape=curlyBracket;whiteSpace=wrap;html=1;rounded=1;flipH=1;labelPosition=right;verticalLabelPosition=middle;align=left;verticalAlign=middle;" parent="rD_vGrl1cCV_8WBfiHGh-20" vertex="1">
          <mxGeometry x="150" y="27.5" width="20" height="337.5" as="geometry" />
        </mxCell>
        <mxCell id="rD_vGrl1cCV_8WBfiHGh-35" value="Docker" style="rounded=0;whiteSpace=wrap;html=1;" parent="rD_vGrl1cCV_8WBfiHGh-20" vertex="1">
          <mxGeometry x="190" y="166.25" width="120" height="60" as="geometry" />
        </mxCell>
        <mxCell id="rD_vGrl1cCV_8WBfiHGh-36" value="&lt;div&gt;Uncomplicated Firewall&lt;/div&gt;" style="rounded=0;whiteSpace=wrap;html=1;" parent="rD_vGrl1cCV_8WBfiHGh-20" vertex="1">
          <mxGeometry x="190" y="92.5" width="120" height="60" as="geometry" />
        </mxCell>
      </root>
    </mxGraphModel>
  </diagram>
</mxfile>
